<svg width="72" height="22" viewBox="0 0 72 22" fill="none" xmlns="http://www.w3.org/2000/svg"><path fill="#9A9A9A" d="M50 0h22v22H50z"/><path d="M56.084 9.007h9.095c.837 0 1.516-.672 1.516-1.501V3.002h3.032v5.073c0 .597-.24 1.17-.667 1.592l-.85.841.85.842c.427.422.666.995.666 1.592v6.573h-3.031v-6.004c0-.83-.679-1.502-1.516-1.502h-9.095v7.506h-3.031V3.002h3.031v6.005z" fill="#fff"/><path fill="#9A9A9A" d="M0 0h21.979v22H0z"/><path d="M14.076 3.034c3.11 0 5.63 2.548 5.63 5.69 0 3.142-2.52 5.69-5.63 5.69H6.063v5.31H3.032V3.034h11.044zM6.063 6.07v5.31h8.61c1.105 0 2-.905 2-2.021V8.09a2.01 2.01 0 00-2-2.021h-8.61z" fill="#fff"/><path fill="#4C6887" d="M25 0h22v22H25z"/><path d="M44.716 6.005h-6.82v13.51h-3.032V6.005h-6.821V3.002h16.673v3.003z" fill="#fff"/></svg>